<svg width="29" height="29" viewBox="0 0 29 29" fill="none" xmlns="http://www.w3.org/2000/svg">
<g clip-path="url(#clip0_704_457)">
<path d="M28.9847 14.7713C28.9847 13.5831 28.886 12.7161 28.6725 11.817H14.7888V17.1796H22.9382C22.774 18.5123 21.8868 20.5192 19.9151 21.8678L19.8874 22.0474L24.2772 25.3705L24.5813 25.4002C27.3744 22.8794 28.9847 19.1705 28.9847 14.7713Z" fill="#4285F4"/>
<path d="M14.7888 28.9004C18.7814 28.9004 22.1331 27.6158 24.5813 25.4002L19.9151 21.8679C18.6664 22.7188 16.9905 23.3129 14.7888 23.3129C10.8784 23.3129 7.55953 20.7922 6.37643 17.3081L6.20301 17.3225L1.63847 20.7745L1.57878 20.9366C4.01045 25.657 9.0053 28.9004 14.7888 28.9004Z" fill="#34A853"/>
<path d="M6.37653 17.3081C6.06436 16.409 5.88369 15.4456 5.88369 14.4502C5.88369 13.4547 6.06436 12.4914 6.3601 11.5923L6.35183 11.4008L1.7301 7.89331L1.57888 7.9636C0.576672 9.92243 0.00160217 12.1221 0.00160217 14.4502C0.00160217 16.7783 0.576672 18.9778 1.57888 20.9367L6.37653 17.3081Z" fill="#FBBC05"/>
<path d="M14.7888 5.58737C17.5655 5.58737 19.4386 6.75943 20.5066 7.7389L24.6799 3.75705C22.1168 1.42897 18.7814 0 14.7888 0C9.0053 0 4.01045 3.24324 1.57878 7.9636L6.36 11.5923C7.55953 8.10816 10.8784 5.58737 14.7888 5.58737Z" fill="#EB4335"/>
</g>
<defs>
<clipPath id="clip0_704_457">
<rect width="29" height="29" fill="white"/>
</clipPath>
</defs>
</svg>